<svg id="visual" viewBox="0 0 900 600" width="900" height="600" xmlns="http://www.w3.org/2000/svg" xmlns:xlink="http://www.w3.org/1999/xlink" version="1.1"><g stroke-width="1" stroke-linejoin="bevel"><path d="M410 306L377 375L498 397Z" fill="#f15739" stroke="#f15739"></path><path d="M498 397L492 293L410 306Z" fill="#0b1c32" stroke="#0b1c32"></path><path d="M377 375L477 464L498 397Z" fill="#a5306a" stroke="#a5306a"></path><path d="M630 496L588 371L498 397Z" fill="#3c2c5a" stroke="#3c2c5a"></path><path d="M498 397L588 371L492 293Z" fill="#3c2c5a" stroke="#3c2c5a"></path><path d="M492 293L398 210L410 306Z" fill="#00101c" stroke="#00101c"></path><path d="M267 294L271 399L377 375Z" fill="#0b1c32" stroke="#0b1c32"></path><path d="M482 196L398 210L492 293Z" fill="#82306c" stroke="#82306c"></path><path d="M583 211L482 196L492 293Z" fill="#df4050" stroke="#df4050"></path><path d="M377 375L410 533L477 464Z" fill="#c53360" stroke="#c53360"></path><path d="M477 464L630 496L498 397Z" fill="#3c2c5a" stroke="#3c2c5a"></path><path d="M267 294L377 375L410 306Z" fill="#c53360" stroke="#c53360"></path><path d="M377 375L321 511L410 533Z" fill="#5e2f67" stroke="#5e2f67"></path><path d="M588 371L616 294L492 293Z" fill="#c53360" stroke="#c53360"></path><path d="M398 210L267 294L410 306Z" fill="#f15739" stroke="#f15739"></path><path d="M271 399L321 511L377 375Z" fill="#82306c" stroke="#82306c"></path><path d="M616 294L583 211L492 293Z" fill="#a5306a" stroke="#a5306a"></path><path d="M482 600L630 496L477 464Z" fill="#00101c" stroke="#00101c"></path><path d="M588 371L720 339L616 294Z" fill="#f97316" stroke="#f97316"></path><path d="M583 211L487 131L482 196Z" fill="#3c2c5a" stroke="#3c2c5a"></path><path d="M482 196L487 131L398 210Z" fill="#00101c" stroke="#00101c"></path><path d="M398 210L268 167L267 294Z" fill="#0b1c32" stroke="#0b1c32"></path><path d="M332 600L424 600L410 533Z" fill="#00101c" stroke="#00101c"></path><path d="M410 533L482 600L477 464Z" fill="#f97316" stroke="#f97316"></path><path d="M424 600L482 600L410 533Z" fill="#c53360" stroke="#c53360"></path><path d="M267 294L203 408L271 399Z" fill="#1f2548" stroke="#1f2548"></path><path d="M271 399L203 408L321 511Z" fill="#1f2548" stroke="#1f2548"></path><path d="M201 600L332 600L321 511Z" fill="#5e2f67" stroke="#5e2f67"></path><path d="M321 511L332 600L410 533Z" fill="#3c2c5a" stroke="#3c2c5a"></path><path d="M388 62L268 167L398 210Z" fill="#c53360" stroke="#c53360"></path><path d="M267 294L165 275L203 408Z" fill="#82306c" stroke="#82306c"></path><path d="M630 496L708 439L588 371Z" fill="#00101c" stroke="#00101c"></path><path d="M616 294L708 170L583 211Z" fill="#a5306a" stroke="#a5306a"></path><path d="M268 167L224 191L267 294Z" fill="#a5306a" stroke="#a5306a"></path><path d="M708 439L720 339L588 371Z" fill="#df4050" stroke="#df4050"></path><path d="M224 191L165 275L267 294Z" fill="#0b1c32" stroke="#0b1c32"></path><path d="M708 170L585 110L583 211Z" fill="#5e2f67" stroke="#5e2f67"></path><path d="M583 211L585 110L487 131Z" fill="#82306c" stroke="#82306c"></path><path d="M487 131L388 62L398 210Z" fill="#f15739" stroke="#f15739"></path><path d="M482 600L633 600L630 496Z" fill="#1f2548" stroke="#1f2548"></path><path d="M630 496L720 526L708 439Z" fill="#a5306a" stroke="#a5306a"></path><path d="M420 0L388 62L487 131Z" fill="#a5306a" stroke="#a5306a"></path><path d="M268 167L213 124L224 191Z" fill="#a5306a" stroke="#a5306a"></path><path d="M111 463L176 532L203 408Z" fill="#1f2548" stroke="#1f2548"></path><path d="M203 408L176 532L321 511Z" fill="#c53360" stroke="#c53360"></path><path d="M388 62L283 83L268 167Z" fill="#82306c" stroke="#82306c"></path><path d="M224 191L93 189L165 275Z" fill="#82306c" stroke="#82306c"></path><path d="M633 600L720 526L630 496Z" fill="#00101c" stroke="#00101c"></path><path d="M708 439L812 401L720 339Z" fill="#1f2548" stroke="#1f2548"></path><path d="M720 339L708 170L616 294Z" fill="#df4050" stroke="#df4050"></path><path d="M283 83L213 124L268 167Z" fill="#a5306a" stroke="#a5306a"></path><path d="M176 532L201 600L321 511Z" fill="#df4050" stroke="#df4050"></path><path d="M75 421L111 463L203 408Z" fill="#1f2548" stroke="#1f2548"></path><path d="M176 532L129 600L201 600Z" fill="#3c2c5a" stroke="#3c2c5a"></path><path d="M93 189L101 289L165 275Z" fill="#df4050" stroke="#df4050"></path><path d="M165 275L101 289L203 408Z" fill="#5e2f67" stroke="#5e2f67"></path><path d="M633 600L708 600L720 526Z" fill="#f97316" stroke="#f97316"></path><path d="M511 0L487 131L585 110Z" fill="#82306c" stroke="#82306c"></path><path d="M511 0L420 0L487 131Z" fill="#00101c" stroke="#00101c"></path><path d="M388 62L260 0L283 83Z" fill="#00101c" stroke="#00101c"></path><path d="M112 67L93 189L213 124Z" fill="#df4050" stroke="#df4050"></path><path d="M585 0L511 0L585 110Z" fill="#f97316" stroke="#f97316"></path><path d="M101 289L75 421L203 408Z" fill="#f97316" stroke="#f97316"></path><path d="M111 463L129 600L176 532Z" fill="#f97316" stroke="#f97316"></path><path d="M826 483L812 401L708 439Z" fill="#0b1c32" stroke="#0b1c32"></path><path d="M720 339L831 282L708 170Z" fill="#3c2c5a" stroke="#3c2c5a"></path><path d="M826 483L708 439L720 526Z" fill="#f15739" stroke="#f15739"></path><path d="M828 213L739 112L708 170Z" fill="#1f2548" stroke="#1f2548"></path><path d="M708 170L739 112L585 110Z" fill="#1f2548" stroke="#1f2548"></path><path d="M213 124L93 189L224 191Z" fill="#f97316" stroke="#f97316"></path><path d="M101 289L0 380L75 421Z" fill="#c53360" stroke="#c53360"></path><path d="M210 0L213 124L283 83Z" fill="#f15739" stroke="#f15739"></path><path d="M707 0L585 0L585 110Z" fill="#c53360" stroke="#c53360"></path><path d="M0 497L129 600L111 463Z" fill="#df4050" stroke="#df4050"></path><path d="M812 401L831 282L720 339Z" fill="#c53360" stroke="#c53360"></path><path d="M792 600L826 483L720 526Z" fill="#f97316" stroke="#f97316"></path><path d="M812 401L900 388L831 282Z" fill="#3c2c5a" stroke="#3c2c5a"></path><path d="M420 0L260 0L388 62Z" fill="#f15739" stroke="#f15739"></path><path d="M831 282L828 213L708 170Z" fill="#c53360" stroke="#c53360"></path><path d="M708 600L792 600L720 526Z" fill="#3c2c5a" stroke="#3c2c5a"></path><path d="M260 0L210 0L283 83Z" fill="#0b1c32" stroke="#0b1c32"></path><path d="M828 213L777 81L739 112Z" fill="#df4050" stroke="#df4050"></path><path d="M739 112L707 0L585 110Z" fill="#a5306a" stroke="#a5306a"></path><path d="M0 291L0 380L101 289Z" fill="#df4050" stroke="#df4050"></path><path d="M75 421L0 497L111 463Z" fill="#0b1c32" stroke="#0b1c32"></path><path d="M210 0L112 67L213 124Z" fill="#82306c" stroke="#82306c"></path><path d="M0 200L0 291L101 289Z" fill="#00101c" stroke="#00101c"></path><path d="M0 200L101 289L93 189Z" fill="#a5306a" stroke="#a5306a"></path><path d="M777 81L707 0L739 112Z" fill="#3c2c5a" stroke="#3c2c5a"></path><path d="M826 483L900 388L812 401Z" fill="#82306c" stroke="#82306c"></path><path d="M831 282L900 302L828 213Z" fill="#df4050" stroke="#df4050"></path><path d="M828 213L900 165L777 81Z" fill="#f97316" stroke="#f97316"></path><path d="M900 526L900 388L826 483Z" fill="#00101c" stroke="#00101c"></path><path d="M0 380L0 497L75 421Z" fill="#f97316" stroke="#f97316"></path><path d="M900 388L900 302L831 282Z" fill="#3c2c5a" stroke="#3c2c5a"></path><path d="M0 113L0 200L93 189Z" fill="#f15739" stroke="#f15739"></path><path d="M792 600L900 526L826 483Z" fill="#3c2c5a" stroke="#3c2c5a"></path><path d="M900 302L900 165L828 213Z" fill="#0b1c32" stroke="#0b1c32"></path><path d="M777 81L833 0L707 0Z" fill="#a5306a" stroke="#a5306a"></path><path d="M0 497L0 600L129 600Z" fill="#a5306a" stroke="#a5306a"></path><path d="M112 67L0 113L93 189Z" fill="#0b1c32" stroke="#0b1c32"></path><path d="M62 0L0 113L112 67Z" fill="#a5306a" stroke="#a5306a"></path><path d="M792 600L900 600L900 526Z" fill="#1f2548" stroke="#1f2548"></path><path d="M900 165L900 107L777 81Z" fill="#5e2f67" stroke="#5e2f67"></path><path d="M210 0L62 0L112 67Z" fill="#a5306a" stroke="#a5306a"></path><path d="M900 107L833 0L777 81Z" fill="#f97316" stroke="#f97316"></path><path d="M62 0L0 0L0 113Z" fill="#0b1c32" stroke="#0b1c32"></path><path d="M900 107L900 0L833 0Z" fill="#df4050" stroke="#df4050"></path></g></svg>