<svg xmlns="http://www.w3.org/2000/svg"  viewBox="0 0 48 48" width="48px" height="48px" baseProfile="basic"><path fill="#ff6201" d="M45.247,13.808l-1.6-0.407c-0.227-0.844-0.558-1.643-0.985-2.383l0.842-1.421	c0.233-0.393,0.17-0.894-0.153-1.217l-1.729-1.729c-0.324-0.324-0.826-0.386-1.219-0.152l-1.413,0.843	c-0.741-0.428-1.541-0.76-2.387-0.988l-0.41-1.602C36.079,4.31,35.681,4,35.224,4h-2.445c-0.458,0-0.857,0.311-0.969,0.755	l-0.404,1.597c-0.846,0.227-1.646,0.558-2.388,0.986l-1.421-0.842c-0.393-0.233-0.894-0.17-1.217,0.153l-1.729,1.729	c-0.324,0.324-0.386,0.826-0.152,1.219l0.843,1.413c-0.428,0.741-0.76,1.542-0.988,2.387l-1.602,0.41	C22.31,13.921,22,14.319,22,14.776v2.445c0,0.458,0.311,0.857,0.755,0.969l1.597,0.404c0.228,0.849,0.562,1.654,0.992,2.398	l-0.843,1.41c-0.235,0.393-0.173,0.896,0.151,1.221l1.727,1.727c0.323,0.323,0.825,0.386,1.218,0.153l1.417-0.842	c0.743,0.429,1.546,0.761,2.395,0.989l0.401,1.595C31.922,27.688,32.321,28,32.78,28h2.443c0.457,0,0.856-0.31,0.969-0.753	l0.407-1.6c0.848-0.228,1.651-0.561,2.393-0.991l1.41,0.843c0.393,0.235,0.896,0.173,1.22-0.151l1.727-1.727	c0.323-0.323,0.386-0.825,0.153-1.218l-0.842-1.417c0.429-0.743,0.761-1.546,0.989-2.394l1.595-0.401	C45.688,18.078,46,17.679,46,17.22v-2.443C46,14.32,45.69,13.921,45.247,13.808z"/><linearGradient id="CMb5y36j1o-KZPf9JW9INa" x1="34" x2="34" y1="5.511" y2="42.297" gradientUnits="userSpaceOnUse"><stop offset="0" stop-color="#fce724"/><stop offset=".311" stop-color="#fdbd19"/><stop offset="1" stop-color="#ff6201"/></linearGradient><path fill="url(#CMb5y36j1o-KZPf9JW9INa)" d="M45.247,13.808l-1.6-0.407c-0.227-0.844-0.558-1.643-0.985-2.383l0.842-1.421	c0.233-0.393,0.17-0.894-0.153-1.217l-1.729-1.729c-0.324-0.324-0.826-0.386-1.219-0.152l-1.413,0.843	c-0.741-0.428-1.541-0.76-2.387-0.988l-0.41-1.602C36.079,4.31,35.68,4,35.224,4h-2.445c-0.458,0-0.857,0.311-0.969,0.755	l-0.404,1.597c-0.846,0.227-1.646,0.558-2.388,0.986l-1.421-0.842c-0.393-0.233-0.894-0.17-1.217,0.153l-1.729,1.729	c-0.324,0.324-0.386,0.826-0.152,1.219l0.843,1.413c-0.428,0.741-0.76,1.542-0.988,2.387l-1.602,0.41	C22.31,13.921,22,14.32,22,14.776v2.445c0,0.458,0.311,0.857,0.755,0.969l1.597,0.404c0.228,0.849,0.562,1.654,0.992,2.398	l-0.843,1.41c-0.235,0.393-0.173,0.896,0.151,1.221l1.727,1.727c0.323,0.323,0.825,0.386,1.218,0.153l1.417-0.842	c0.743,0.429,1.546,0.761,2.395,0.989l0.401,1.595C31.922,27.688,32.321,28,32.78,28h2.443c0.457,0,0.856-0.31,0.969-0.753	l0.407-1.6c0.848-0.228,1.651-0.561,2.393-0.991l1.41,0.843c0.393,0.235,0.896,0.173,1.221-0.151l1.727-1.727	c0.323-0.323,0.386-0.825,0.153-1.218l-0.842-1.417c0.429-0.743,0.761-1.546,0.989-2.394l1.595-0.401	C45.688,18.078,46,17.679,46,17.22v-2.443C46,14.32,45.69,13.921,45.247,13.808z"/><path fill="#ff8955" d="M29.218,12.311l-2.3,1.528c-0.743-0.424-1.541-0.754-2.361-1.036	c-0.067,0.199-0.147,0.391-0.202,0.595l-1.602,0.41C22.31,13.921,22,14.32,22,14.776v2.445c0,0.458,0.311,0.857,0.755,0.969	l1.597,0.404c0.228,0.849,0.562,1.654,0.992,2.398l-0.843,1.41c-0.235,0.393-0.173,0.896,0.151,1.221l1.727,1.727	c0.323,0.323,0.825,0.386,1.218,0.153l1.417-0.842c0.743,0.429,1.546,0.761,2.395,0.989l0.401,1.595	C31.922,27.688,32.321,28,32.78,28h2.443c0.457,0,0.856-0.31,0.969-0.753l0.407-1.6c0.138-0.037,0.266-0.094,0.401-0.136v-1.693	c0-0.476-0.335-0.885-0.801-0.98l-2.712-0.55c-0.31-1.13-0.754-2.202-1.321-3.199l1.526-2.307c0.262-0.396,0.209-0.923-0.127-1.259	l-3.086-3.086C30.142,12.1,29.614,12.047,29.218,12.311z" opacity=".4"/><path fill="#ff8955" d="M29.033,12.033l-2.137,1.419c-0.704-0.395-1.457-0.705-2.232-0.968	c-0.113,0.3-0.226,0.6-0.31,0.913l-1.602,0.41C22.31,13.921,22,14.32,22,14.776v2.445c0,0.458,0.311,0.857,0.755,0.969l1.597,0.404	c0.228,0.849,0.562,1.654,0.992,2.398l-0.843,1.41c-0.235,0.393-0.173,0.896,0.151,1.221l1.727,1.727	c0.323,0.323,0.825,0.386,1.218,0.153l1.417-0.842c0.743,0.429,1.546,0.761,2.395,0.989l0.401,1.595	C31.922,27.688,32.321,28,32.78,28h2.443c0.457,0,0.856-0.31,0.969-0.753l0.407-1.6c0.252-0.068,0.491-0.163,0.734-0.25v-1.58	c0-0.633-0.448-1.181-1.068-1.307l-2.521-0.511c-0.286-1.018-0.686-1.987-1.193-2.89l1.418-2.144	c0.349-0.528,0.278-1.231-0.169-1.679l-3.086-3.086C30.266,11.753,29.561,11.682,29.033,12.033z" opacity=".35"/><path fill="#ff8955" d="M28.849,11.755l-1.974,1.311c-0.664-0.366-1.373-0.656-2.103-0.9	c-0.165,0.398-0.305,0.809-0.418,1.231l-1.602,0.41C22.31,13.921,22,14.32,22,14.776v2.445c0,0.458,0.311,0.857,0.755,0.969	l1.597,0.404c0.228,0.849,0.562,1.654,0.992,2.398l-0.843,1.41c-0.235,0.393-0.173,0.896,0.151,1.221l1.727,1.727	c0.323,0.323,0.825,0.386,1.218,0.153l1.417-0.842c0.743,0.429,1.546,0.761,2.395,0.989l0.401,1.595	C31.922,27.688,32.321,28,32.78,28h2.443c0.457,0,0.856-0.31,0.969-0.753l0.407-1.6c0.366-0.098,0.72-0.226,1.068-0.363v-1.467	c0-0.791-0.56-1.476-1.335-1.633l-2.329-0.473c-0.262-0.906-0.619-1.771-1.066-2.581l1.31-1.98c0.437-0.659,0.348-1.54-0.211-2.098	l-3.086-3.086C30.39,11.405,29.509,11.317,28.849,11.755z" opacity=".3"/><path fill="#ff8955" d="M28.665,11.478l-1.81,1.202c-0.612-0.33-1.262-0.596-1.932-0.818	c-0.225,0.494-0.425,1.002-0.568,1.536l-1.602,0.41C22.31,13.921,22,14.32,22,14.776v2.445c0,0.458,0.311,0.857,0.755,0.969	l1.597,0.404c0.228,0.849,0.562,1.654,0.992,2.398l-0.843,1.41c-0.235,0.393-0.173,0.896,0.151,1.221l1.727,1.727	c0.323,0.323,0.825,0.386,1.218,0.153l1.417-0.842c0.743,0.429,1.546,0.761,2.395,0.989l0.401,1.595	C31.922,27.688,32.321,28,32.78,28h2.443c0.457,0,0.856-0.31,0.969-0.753l0.407-1.6c0.484-0.13,0.949-0.304,1.401-0.501v-1.328	c0-0.949-0.673-1.771-1.602-1.96l-2.137-0.434c-0.238-0.794-0.552-1.555-0.938-2.273l1.202-1.817	c0.524-0.791,0.417-1.849-0.253-2.518l-3.086-3.086C30.514,11.058,29.456,10.952,28.665,11.478z" opacity=".25"/><path fill="#ff8955" d="M24.376,9.22c0.012,0.088,0.04,0.173,0.076,0.257 C24.432,9.388,24.406,9.303,24.376,9.22z" opacity=".2"/><path fill="#ff8955" d="M28.48,11.2l-1.647,1.094c-0.561-0.293-1.152-0.535-1.76-0.737 c-0.292,0.587-0.545,1.196-0.719,1.841l-1.602,0.41C22.31,13.921,22,14.32,22,14.776v2.445c0,0.458,0.311,0.857,0.755,0.969 l1.597,0.404c0.228,0.849,0.562,1.654,0.992,2.398l-0.843,1.41c-0.235,0.393-0.173,0.896,0.151,1.221l1.727,1.727 c0.323,0.323,0.825,0.386,1.218,0.153l1.417-0.842c0.743,0.429,1.546,0.761,2.395,0.989l0.401,1.595 C31.922,27.688,32.321,28,32.78,28h2.443c0.457,0,0.856-0.31,0.969-0.753l0.407-1.6c0.606-0.163,1.18-0.398,1.734-0.666v-1.164 c0-1.106-0.786-2.067-1.869-2.286l-1.945-0.395c-0.214-0.682-0.485-1.339-0.81-1.964l1.094-1.654 c0.611-0.922,0.486-2.157-0.295-2.938l-3.086-3.086C30.639,10.71,29.403,10.587,28.48,11.2z" opacity=".2"/><path fill="#ff8955" d="M24.99,10.421l-0.194-0.952c-0.061-0.302-0.175-0.582-0.327-0.835 c-0.152,0.3-0.15,0.663,0.03,0.964L24.99,10.421z" opacity=".15"/><path fill="#ff8955" d="M28.296,10.922l-1.484,0.985c-0.51-0.255-1.041-0.473-1.587-0.658 c-0.366,0.675-0.666,1.39-0.87,2.148l-1.602,0.41C22.31,13.921,22,14.32,22,14.776v2.445c0,0.458,0.311,0.857,0.755,0.969 l1.597,0.404c0.228,0.849,0.562,1.654,0.992,2.398l-0.843,1.41c-0.235,0.393-0.173,0.896,0.151,1.221l1.727,1.727 c0.323,0.323,0.825,0.386,1.218,0.153l1.417-0.842c0.743,0.429,1.546,0.761,2.395,0.989l0.401,1.595 C31.922,27.688,32.321,28,32.78,28h2.443c0.457,0,0.856-0.31,0.969-0.753l0.407-1.6c0.729-0.196,1.415-0.484,2.068-0.83v-0.999 c0-1.264-0.898-2.362-2.136-2.613l-1.753-0.356c-0.189-0.57-0.418-1.123-0.683-1.655l0.986-1.49 c0.698-1.053,0.556-2.466-0.337-3.358l-3.086-3.086C30.763,10.363,29.35,10.222,28.296,10.922z" opacity=".15"/><path fill="#ff8955" d="M36.597,20.878l-1.561-0.317c-0.165-0.458-0.351-0.907-0.555-1.347l0.878-1.327	c0.785-1.185,0.625-2.774-0.379-3.777l-3.086-3.086c-1.006-1.008-2.596-1.166-3.782-0.379l-1.321,0.877	c-0.439-0.205-0.89-0.392-1.349-0.557l-0.318-1.562c-0.078-0.386-0.236-0.738-0.445-1.051l-0.027,0.027	c-0.324,0.324-0.386,0.826-0.152,1.219l0.843,1.413c-0.428,0.741-0.76,1.542-0.988,2.387l-1.602,0.41	C22.31,13.921,22,14.32,22,14.776v2.445c0,0.458,0.311,0.857,0.755,0.969l1.597,0.404c0.228,0.849,0.562,1.654,0.992,2.398	l-0.843,1.41c-0.235,0.393-0.173,0.896,0.151,1.221l1.727,1.727c0.323,0.323,0.825,0.386,1.218,0.153l1.417-0.842	c0.743,0.429,1.546,0.761,2.395,0.989l0.401,1.595C31.922,27.688,32.321,28,32.78,28h2.443c0.457,0,0.856-0.31,0.969-0.753	l0.407-1.6c0.848-0.228,1.651-0.561,2.393-0.991L39,24.66v-0.843C39,22.396,37.989,21.16,36.597,20.878z" opacity=".1"/><path fill="#ff8955" d="M35.223,28.75c0.555,0,1.053-0.299,1.302-0.747c0.1-0.07,0.316-0.668,0.475-1.126v-3.06	c0-0.476-0.335-0.885-0.801-0.98l-2.712-0.55c-0.31-1.13-0.754-2.202-1.321-3.199l1.526-2.307c0.262-0.396,0.209-0.923-0.127-1.259	l-3.086-3.086c-0.337-0.337-0.864-0.389-1.26-0.126l-2.3,1.528c-0.989-0.564-2.054-1.004-3.175-1.315	c-0.035,0.099-0.077,0.196-0.11,0.295c-0.143,0.059-1.47,0.457-1.569,0.57c-0.489,0.263-0.814,0.795-0.814,1.388v2.445	c0,0.571,0.31,1.084,0.774,1.338c0.105,0.137,1.444,0.549,1.609,0.616c0.217,0.656,0.488,1.308,0.791,1.912	c-0.074,0.177-0.727,1.425-0.696,1.607c-0.143,0.495-0.002,1.062,0.393,1.457l1.727,1.727c0.386,0.386,0.94,0.525,1.423,0.388	c0.192,0.039,1.457-0.611,1.644-0.688c0.604,0.302,1.257,0.572,1.912,0.789c0.061,0.148,0.457,1.474,0.575,1.575	c0.26,0.484,0.788,0.807,1.377,0.807H35.223z" opacity=".4"/><path fill="#ff8955" d="M34.511,29.5l1.686-0.339C36.664,29.068,37,28.657,37,28.181v-4.363 c0-0.476-0.335-0.885-0.801-0.98l-2.712-0.55c-0.31-1.13-0.754-2.202-1.321-3.199l1.526-2.307c0.262-0.396,0.209-0.923-0.127-1.259 l-3.086-3.086c-0.337-0.337-0.864-0.389-1.26-0.126l-2.3,1.528c-0.997-0.568-2.071-1.013-3.202-1.324l-0.302-1.481 c-0.156,0.4-0.328,0.816-0.503,1.206c-0.286,0.118-1.317,0.525-1.536,0.73c-0.493,0.462-0.875,1.078-0.875,1.807v2.445 c0,0.684,0.357,1.258,0.794,1.707c0.241,0.247,1.291,0.694,1.621,0.829c0.206,0.462,0.414,0.963,0.59,1.427 c-0.148,0.353-0.564,1.435-0.549,1.805c0.024,0.598,0.169,1.228,0.635,1.693l1.727,1.727c0.448,0.448,1.086,0.435,1.628,0.623 c0.37,0.128,1.497-0.379,1.87-0.535c0.465,0.176,0.967,0.384,1.429,0.59c0.123,0.297,0.534,1.329,0.75,1.554 c0.459,0.48,1.064,0.857,1.784,0.857H34.511z" opacity=".3"/><path fill="#ff8955" d="M23.212,10.042L23.163,9.8c-0.023-0.112-0.066-0.216-0.122-0.311 C23.088,9.664,23.148,9.854,23.212,10.042z" opacity=".3"/><path fill="#ff8955" d="M33.302,30.25c0.058-0.183,0.135-0.358,0.186-0.545l2.709-0.544	C36.664,29.068,37,28.657,37,28.181v-4.363c0-0.476-0.335-0.885-0.801-0.98l-2.712-0.55c-0.31-1.13-0.754-2.202-1.321-3.199	l1.526-2.307c0.262-0.396,0.209-0.923-0.127-1.259l-3.086-3.086c-0.337-0.337-0.864-0.389-1.26-0.126l-2.3,1.528	c-0.997-0.568-2.071-1.013-3.202-1.324L23.163,9.8c-0.095-0.464-0.502-0.797-0.975-0.799c0.019,0.549,0.208,1.264,0.394,1.713	c-0.049,0.326-0.194,0.677-0.392,0.947c-0.43,0.178-1.192,0.564-1.503,0.89c-0.558,0.585-0.937,1.36-0.937,2.226v2.445	c0,0.798,0.334,1.513,0.813,2.076c0.336,0.394,1.138,0.839,1.633,1.042c0.195,0.269,0.339,0.618,0.389,0.941	c-0.222,0.53-0.464,1.451-0.401,2.003c0.079,0.694,0.34,1.394,0.876,1.93l1.727,1.727c0.511,0.511,1.175,0.765,1.833,0.859	c0.582,0.083,1.537-0.148,2.096-0.381c0.325,0.049,0.677,0.195,0.947,0.391c0.184,0.445,0.582,1.216,0.924,1.534	c0.58,0.539,1.341,0.907,2.191,0.907H33.302z" opacity=".2"/><path fill="#ff8955" d="M33.046,31c0.162-0.425,0.321-0.851,0.442-1.295l2.709-0.544	C36.664,29.068,37,28.657,37,28.181v-4.363c0-0.476-0.335-0.885-0.801-0.98l-2.712-0.55c-0.31-1.13-0.754-2.202-1.321-3.199	l1.526-2.307c0.262-0.396,0.209-0.923-0.127-1.259l-3.086-3.086c-0.337-0.337-0.864-0.389-1.26-0.126l-2.3,1.528	c-0.997-0.568-2.071-1.013-3.202-1.324L23.163,9.8C23.068,9.335,22.659,9,22.183,9H21.36c-0.012,0.545,0.086,1.095,0.301,1.614	c0.078,0.187-0.006,0.389-0.193,0.466c-0.573,0.237-1.073,0.599-1.47,1.05C19.371,12.843,19,13.774,19,14.776v2.445	c0,0.911,0.306,1.763,0.833,2.445c0.422,0.547,0.985,0.984,1.645,1.254c0.184,0.075,0.265,0.273,0.189,0.456	c-0.296,0.707-0.377,1.47-0.254,2.201c0.134,0.799,0.512,1.56,1.118,2.166l1.728,1.728c0.574,0.574,1.286,0.943,2.039,1.094	c0.768,0.155,1.577,0.084,2.322-0.227c0.186-0.078,0.387,0.006,0.464,0.192c0.245,0.594,0.625,1.109,1.098,1.513	C30.887,30.645,31.799,31,32.78,31H33.046z" opacity=".1"/><linearGradient id="CMb5y36j1o-KZPf9JW9INb" x1="36.386" x2="15.201" y1="9.614" y2="30.799" gradientUnits="userSpaceOnUse"><stop offset="0" stop-color="#fff" stop-opacity=".4"/><stop offset="1" stop-color="#f4805d" stop-opacity=".3"/></linearGradient><path fill="url(#CMb5y36j1o-KZPf9JW9INb)" d="M36.199,22.837l-2.712-0.55	c-0.31-1.13-0.754-2.202-1.321-3.199l1.526-2.307c0.262-0.396,0.209-0.923-0.127-1.259l-3.086-3.086	c-0.337-0.337-0.864-0.389-1.26-0.126l-2.3,1.528c-0.997-0.568-2.071-1.013-3.202-1.324L23.163,9.8C23.068,9.335,22.659,9,22.183,9	h-4.365c-0.476,0-0.886,0.336-0.98,0.802l-0.547,2.71c-1.131,0.311-2.205,0.754-3.203,1.322l-2.307-1.526	c-0.396-0.262-0.923-0.209-1.259,0.127l-3.086,3.086c-0.337,0.337-0.389,0.864-0.126,1.26l1.528,2.3	c-0.568,0.997-1.013,2.071-1.324,3.202L3.8,22.837C3.335,22.932,3,23.341,3,23.817v4.365c0,0.476,0.336,0.886,0.802,0.98l2.71,0.547	c0.312,1.135,0.757,2.212,1.328,3.212l-1.528,2.297c-0.264,0.397-0.211,0.924,0.125,1.261l3.085,3.085	c0.336,0.336,0.863,0.389,1.26,0.126l2.304-1.527c0.999,0.569,2.075,1.014,3.209,1.324l0.544,2.709	C16.932,42.664,17.343,43,17.819,43h4.363c0.476,0,0.885-0.335,0.98-0.801l0.55-2.712c1.133-0.311,2.209-0.757,3.208-1.326	l2.297,1.528c0.397,0.264,0.924,0.211,1.261-0.125l3.085-3.085c0.336-0.336,0.389-0.863,0.126-1.26l-1.527-2.304	c0.569-0.999,1.014-2.075,1.324-3.209l2.709-0.544C36.664,29.068,37,28.657,37,28.181v-4.363C37,23.342,36.665,22.932,36.199,22.837	z"/><linearGradient id="CMb5y36j1o-KZPf9JW9INc" x1="7.136" x2="36.175" y1="33.959" y2="15.992" gradientUnits="userSpaceOnUse"><stop offset="0" stop-color="#f4805d" stop-opacity=".4"/><stop offset="1" stop-color="ivory" stop-opacity=".2"/></linearGradient><path fill="url(#CMb5y36j1o-KZPf9JW9INc)" d="M22.183,9.5c0.237,0,0.443,0.168,0.49,0.4	l0.553,2.714l0.061,0.301l0.296,0.081c1.088,0.299,2.126,0.729,3.087,1.276l0.268,0.153l0.257-0.17l2.3-1.528	c0.082-0.055,0.178-0.084,0.276-0.084c0.134,0,0.259,0.052,0.354,0.146l3.086,3.086c0.167,0.167,0.194,0.432,0.063,0.629	l-1.526,2.307l-0.17,0.256l0.152,0.267c0.546,0.959,0.974,1.996,1.273,3.084l0.081,0.296l0.301,0.061l2.712,0.55	c0.232,0.047,0.401,0.253,0.401,0.49v4.363c0,0.237-0.169,0.443-0.401,0.49l-2.709,0.544l-0.302,0.061l-0.082,0.297	c-0.299,1.091-0.729,2.132-1.277,3.094l-0.152,0.267l0.17,0.256l1.527,2.304c0.131,0.197,0.104,0.462-0.063,0.63l-3.085,3.085	c-0.094,0.094-0.22,0.146-0.354,0.146c-0.099,0-0.194-0.029-0.277-0.084l-2.297-1.528l-0.257-0.171l-0.268,0.153	c-0.962,0.549-2.003,0.979-3.093,1.279l-0.296,0.081l-0.061,0.301l-0.55,2.712c-0.047,0.232-0.253,0.401-0.49,0.401h-4.363	c-0.237,0-0.443-0.169-0.49-0.402l-0.544-2.709l-0.061-0.302l-0.297-0.082c-1.091-0.299-2.132-0.729-3.094-1.277l-0.267-0.152	l-0.256,0.17l-2.304,1.527c-0.082,0.054-0.178,0.083-0.276,0.083c-0.134,0-0.259-0.052-0.354-0.146l-3.085-3.085	c-0.168-0.168-0.194-0.433-0.063-0.631l1.528-2.297l0.171-0.257l-0.153-0.268c-0.55-0.964-0.98-2.005-1.28-3.097l-0.082-0.297	l-0.302-0.061l-2.71-0.547C3.669,28.625,3.5,28.419,3.5,28.182v-4.365c0-0.237,0.168-0.443,0.4-0.49l2.714-0.553l0.301-0.061	l0.081-0.296c0.299-1.088,0.729-2.126,1.276-3.087l0.153-0.268l-0.17-0.257l-1.528-2.3c-0.131-0.198-0.105-0.463,0.063-0.63	l3.086-3.086c0.094-0.094,0.22-0.147,0.354-0.146c0.098,0,0.193,0.029,0.276,0.083l2.307,1.526l0.256,0.169l0.267-0.152	c0.96-0.547,1.999-0.975,3.088-1.274l0.297-0.081l0.061-0.302l0.547-2.71c0.047-0.232,0.253-0.401,0.49-0.401H22.183 M22.183,9	h-4.365c-0.476,0-0.886,0.336-0.98,0.802l-0.547,2.71c-1.131,0.311-2.205,0.754-3.203,1.322l-2.307-1.526	c-0.169-0.111-0.36-0.166-0.551-0.166c-0.258,0-0.514,0.1-0.707,0.293l-3.086,3.086c-0.337,0.337-0.389,0.864-0.126,1.26l1.528,2.3	c-0.568,0.997-1.013,2.071-1.324,3.202L3.8,22.837C3.335,22.932,3,23.341,3,23.817v4.365c0,0.476,0.336,0.886,0.802,0.98l2.71,0.547	c0.312,1.135,0.757,2.212,1.328,3.212l-1.528,2.297c-0.264,0.397-0.211,0.924,0.125,1.261l3.085,3.085	c0.193,0.193,0.449,0.293,0.707,0.293c0.191,0,0.383-0.055,0.552-0.166l2.304-1.527c0.999,0.569,2.075,1.014,3.209,1.324	l0.544,2.709C16.933,42.664,17.343,43,17.819,43h4.363c0.476,0,0.885-0.335,0.98-0.801l0.55-2.712	c1.133-0.311,2.209-0.757,3.208-1.326l2.297,1.528c0.169,0.112,0.362,0.168,0.554,0.168c0.258,0,0.514-0.1,0.707-0.293l3.085-3.085	c0.336-0.336,0.389-0.863,0.126-1.26l-1.527-2.304c0.569-0.999,1.014-2.075,1.324-3.209l2.709-0.544	C36.664,29.068,37,28.657,37,28.181v-4.363c0-0.476-0.335-0.885-0.801-0.98l-2.712-0.55c-0.31-1.13-0.754-2.202-1.321-3.199	l1.526-2.307c0.262-0.396,0.209-0.923-0.127-1.259l-3.086-3.086c-0.193-0.193-0.449-0.293-0.707-0.293	c-0.192,0-0.384,0.055-0.553,0.167l-2.3,1.528c-0.997-0.568-2.071-1.013-3.202-1.324L23.163,9.8C23.068,9.335,22.659,9,22.183,9	L22.183,9z"/></svg>