<svg id="visual" viewBox="0 0 900 600" width="900" height="600" xmlns="http://www.w3.org/2000/svg" xmlns:xlink="http://www.w3.org/1999/xlink" version="1.1"><g stroke-width="1" stroke-linejoin="bevel"><path d="M419 321L333.5 420L471 367Z" fill="#fb8233" stroke="#fb8233"></path><path d="M419 321L358.5 268L333.5 420Z" fill="#ffe3d1" stroke="#ffe3d1"></path><path d="M333.5 420L440 524L471 367Z" fill="#ffba8d" stroke="#ffba8d"></path><path d="M333.5 420L334.5 522L440 524Z" fill="#f97316" stroke="#f97316"></path><path d="M254 333L248 410L333.5 420Z" fill="#f97316" stroke="#f97316"></path><path d="M333.5 420L265 476L334.5 522Z" fill="#ffffff" stroke="#ffffff"></path><path d="M358.5 268L254 333L333.5 420Z" fill="#fb8233" stroke="#fb8233"></path><path d="M248 410L265 476L333.5 420Z" fill="#ffffff" stroke="#ffffff"></path><path d="M427 209L340.5 234L358.5 268Z" fill="#ffc8a3" stroke="#ffc8a3"></path><path d="M358.5 268L340.5 234L254 333Z" fill="#fb8233" stroke="#fb8233"></path><path d="M427 209L358.5 268L419 321Z" fill="#f97316" stroke="#f97316"></path><path d="M440 524L573.5 389L471 367Z" fill="#f97316" stroke="#f97316"></path><path d="M579.5 282L427 209L419 321Z" fill="#ffc8a3" stroke="#ffc8a3"></path><path d="M579.5 282L419 321L471 367Z" fill="#fd914a" stroke="#fd914a"></path><path d="M334.5 522L415 600L440 524Z" fill="#fb8233" stroke="#fb8233"></path><path d="M440 524L596.5 521L573.5 389Z" fill="#fff1e8" stroke="#fff1e8"></path><path d="M303.5 600L415 600L334.5 522Z" fill="#f97316" stroke="#f97316"></path><path d="M573.5 389L579.5 282L471 367Z" fill="#fb8233" stroke="#fb8233"></path><path d="M265 476L303.5 600L334.5 522Z" fill="#fff1e8" stroke="#fff1e8"></path><path d="M585.5 600L596.5 521L440 524Z" fill="#ff9f60" stroke="#ff9f60"></path><path d="M573.5 389L676 294L579.5 282Z" fill="#ffad77" stroke="#ffad77"></path><path d="M676 294L578.5 226L579.5 282Z" fill="#f97316" stroke="#f97316"></path><path d="M579.5 282L578.5 226L427 209Z" fill="#fff1e8" stroke="#fff1e8"></path><path d="M596.5 521L646 408L573.5 389Z" fill="#ffe3d1" stroke="#ffe3d1"></path><path d="M252 109L217 207L340.5 234Z" fill="#fd914a" stroke="#fd914a"></path><path d="M340.5 234L217 207L254 333Z" fill="#f97316" stroke="#f97316"></path><path d="M126.5 334L140.5 421L248 410Z" fill="#ffe3d1" stroke="#ffe3d1"></path><path d="M248 410L140.5 421L265 476Z" fill="#fb8233" stroke="#fb8233"></path><path d="M265 476L237 600L303.5 600Z" fill="#fff1e8" stroke="#fff1e8"></path><path d="M126.5 334L248 410L254 333Z" fill="#ffe3d1" stroke="#ffe3d1"></path><path d="M93.5 536L237 600L265 476Z" fill="#fff1e8" stroke="#fff1e8"></path><path d="M596.5 521L653 496L646 408Z" fill="#ffe3d1" stroke="#ffe3d1"></path><path d="M415 600L585.5 600L440 524Z" fill="#fb8233" stroke="#fb8233"></path><path d="M596.5 521L643 600L653 496Z" fill="#ffad77" stroke="#ffad77"></path><path d="M217 207L126.5 334L254 333Z" fill="#fb8233" stroke="#fb8233"></path><path d="M646 408L676 294L573.5 389Z" fill="#f97316" stroke="#f97316"></path><path d="M755.5 340L676 294L646 408Z" fill="#ffe3d1" stroke="#ffe3d1"></path><path d="M572.5 112L432 90L427 209Z" fill="#f97316" stroke="#f97316"></path><path d="M427 209L357.5 85L340.5 234Z" fill="#ffad77" stroke="#ffad77"></path><path d="M572.5 112L427 209L578.5 226Z" fill="#ffe3d1" stroke="#ffe3d1"></path><path d="M432 90L357.5 85L427 209Z" fill="#f97316" stroke="#f97316"></path><path d="M585.5 600L643 600L596.5 521Z" fill="#fd914a" stroke="#fd914a"></path><path d="M653 496L749.5 459L646 408Z" fill="#ffba8d" stroke="#ffba8d"></path><path d="M357.5 85L252 109L340.5 234Z" fill="#fff1e8" stroke="#fff1e8"></path><path d="M217 207L118.5 202L126.5 334Z" fill="#fd914a" stroke="#fd914a"></path><path d="M661 182L572.5 112L578.5 226Z" fill="#ffad77" stroke="#ffad77"></path><path d="M676 294L661 182L578.5 226Z" fill="#fff1e8" stroke="#fff1e8"></path><path d="M0 469L93.5 536L140.5 421Z" fill="#ffc8a3" stroke="#ffc8a3"></path><path d="M140.5 421L93.5 536L265 476Z" fill="#ffd5ba" stroke="#ffd5ba"></path><path d="M252 109L118.5 202L217 207Z" fill="#fb8233" stroke="#fb8233"></path><path d="M126.5 334L0 397L140.5 421Z" fill="#fd914a" stroke="#fd914a"></path><path d="M93.5 536L120.5 600L237 600Z" fill="#fff1e8" stroke="#fff1e8"></path><path d="M786.5 600L749.5 459L653 496Z" fill="#ff9f60" stroke="#ff9f60"></path><path d="M676 294L782.5 188L661 182Z" fill="#ffffff" stroke="#ffffff"></path><path d="M749.5 459L755.5 340L646 408Z" fill="#ffd5ba" stroke="#ffd5ba"></path><path d="M538.5 0L408 0L432 90Z" fill="#fb8233" stroke="#fb8233"></path><path d="M432 90L408 0L357.5 85Z" fill="#ffba8d" stroke="#ffba8d"></path><path d="M357.5 85L352.5 0L252 109Z" fill="#fff1e8" stroke="#fff1e8"></path><path d="M252 109L84.5 135L118.5 202Z" fill="#ffad77" stroke="#ffad77"></path><path d="M408 0L352.5 0L357.5 85Z" fill="#ffc8a3" stroke="#ffc8a3"></path><path d="M0 264L0 397L126.5 334Z" fill="#ffd5ba" stroke="#ffd5ba"></path><path d="M93.5 536L0 600L120.5 600Z" fill="#ffad77" stroke="#ffad77"></path><path d="M216 0L84.5 135L252 109Z" fill="#ffba8d" stroke="#ffba8d"></path><path d="M118.5 202L0 264L126.5 334Z" fill="#ffffff" stroke="#ffffff"></path><path d="M0 397L0 469L140.5 421Z" fill="#fff1e8" stroke="#fff1e8"></path><path d="M572.5 112L538.5 0L432 90Z" fill="#fff1e8" stroke="#fff1e8"></path><path d="M686 0L538.5 0L572.5 112Z" fill="#fff1e8" stroke="#fff1e8"></path><path d="M0 184L0 264L118.5 202Z" fill="#fb8233" stroke="#fb8233"></path><path d="M900 470L825.5 415L749.5 459Z" fill="#ff9f60" stroke="#ff9f60"></path><path d="M749.5 459L825.5 415L755.5 340Z" fill="#ffc8a3" stroke="#ffc8a3"></path><path d="M782.5 188L706 89L661 182Z" fill="#ffad77" stroke="#ffad77"></path><path d="M661 182L706 89L572.5 112Z" fill="#ffe3d1" stroke="#ffe3d1"></path><path d="M782.5 188L676 294L755.5 340Z" fill="#ffba8d" stroke="#ffba8d"></path><path d="M900 274L782.5 188L755.5 340Z" fill="#f97316" stroke="#f97316"></path><path d="M352.5 0L216 0L252 109Z" fill="#ffad77" stroke="#ffad77"></path><path d="M643 600L786.5 600L653 496Z" fill="#ffad77" stroke="#ffad77"></path><path d="M0 469L0 600L93.5 536Z" fill="#ffd5ba" stroke="#ffd5ba"></path><path d="M0 81L0 184L84.5 135Z" fill="#ffffff" stroke="#ffffff"></path><path d="M84.5 135L0 184L118.5 202Z" fill="#ff9f60" stroke="#ff9f60"></path><path d="M706 89L686 0L572.5 112Z" fill="#fd914a" stroke="#fd914a"></path><path d="M779.5 0L686 0L706 89Z" fill="#f97316" stroke="#f97316"></path><path d="M900 470L900 429L825.5 415Z" fill="#fff1e8" stroke="#fff1e8"></path><path d="M825.5 415L900 274L755.5 340Z" fill="#fff1e8" stroke="#fff1e8"></path><path d="M900 176L812.5 102L782.5 188Z" fill="#ffad77" stroke="#ffad77"></path><path d="M782.5 188L812.5 102L706 89Z" fill="#ffe3d1" stroke="#ffe3d1"></path><path d="M786.5 600L900 470L749.5 459Z" fill="#ffc8a3" stroke="#ffc8a3"></path><path d="M216 0L83.5 0L84.5 135Z" fill="#fb8233" stroke="#fb8233"></path><path d="M83.5 0L0 81L84.5 135Z" fill="#fd914a" stroke="#fd914a"></path><path d="M900 429L900 274L825.5 415Z" fill="#ffc8a3" stroke="#ffc8a3"></path><path d="M786.5 600L900 600L900 470Z" fill="#f97316" stroke="#f97316"></path><path d="M900 274L900 176L782.5 188Z" fill="#f97316" stroke="#f97316"></path><path d="M812.5 102L779.5 0L706 89Z" fill="#ffc8a3" stroke="#ffc8a3"></path><path d="M900 0L779.5 0L812.5 102Z" fill="#ffba8d" stroke="#ffba8d"></path><path d="M900 176L900 139L812.5 102Z" fill="#f97316" stroke="#f97316"></path><path d="M83.5 0L0 0L0 81Z" fill="#ffc8a3" stroke="#ffc8a3"></path><path d="M900 139L900 0L812.5 102Z" fill="#ffba8d" stroke="#ffba8d"></path></g></svg>